Coordinates
version=1
nRows=7
nColumns=63
inDegrees=yes

Units are S.I. units (second, meters, Newtons, ...)
If the header above contains a line with 'inDegrees', this indicates whether rotational values are in degrees (yes) or radians (no).

endheader
time	pelvis_tilt	pelvis_list	pelvis_rotation	pelvis_tx	pelvis_ty	pelvis_tz	hip_flexion_r	hip_adduction_r	hip_rotation_r	knee_angle_r	knee_angle_r_beta	ankle_angle_r	subtalar_angle_r	mtp_angle_r	hip_flexion_l	hip_adduction_l	hip_rotation_l	knee_angle_l	knee_angle_l_beta	ankle_angle_l	subtalar_angle_l	mtp_angle_l	L5_S1_Flex_Ext	L5_S1_Lat_Bending	L5_S1_axial_rotation	L4_L5_Flex_Ext	L4_L5_Lat_Bending	L4_L5_axial_rotation	L3_L4_Flex_Ext	L3_L4_Lat_Bending	L3_L4_axial_rotation	L2_L3_Flex_Ext	L2_L3_Lat_Bending	L2_L3_axial_rotation	L1_L2_Flex_Ext	L1_L2_Lat_Bending	L1_L2_axial_rotation	L1_T12_Flex_Ext	L1_T12_Lat_Bending	L1_T12_axial_rotation	Abs_r3	Abs_r2	Abs_r1	Abs_t1	Abs_t2	neck_flexion	neck_bending	neck_rotation	arm_flex_r	arm_add_r	arm_rot_r	elbow_flex_r	pro_sup_r	wrist_flex_r	wrist_dev_r	arm_flex_l	arm_add_l	arm_rot_l	elbow_flex_l	pro_sup_l	wrist_flex_l	wrist_dev_l
      1.47368421	     -2.83104350	     -1.66542592	     87.95994544	      0.19599401	      0.89792809	      0.61397760	     11.46662743	     -1.94497998	     -4.90565587	     10.82192159	      0.18887816	     25.46610554	     -2.64539990	      0.00000000	     14.19845715	      0.74804750	     -7.26926015	      9.82968692	      0.17156040	     31.64871362	     12.05140924	      0.00000000	      0.04273846	     -0.26333733	      0.41406300	      0.07936959	     -0.35023865	      0.43994194	      0.07021501	     -0.64027839	      0.43994194	      0.04884578	     -0.64027839	      0.36230512	      0.03968693	     -0.53699749	      0.33642619	      0.02442075	     -0.40790953	      0.31054725	      0.30527653	     -2.97892457	      2.30289418	      0.00000000	      0.00000000	      6.86985855	      0.76043943	     -3.20966070	     11.35226934	    -10.60771949	     48.04621431	     57.23107147	     56.22486357	      5.44990594	      9.57401540	     13.29553381	    -11.61034272	     45.08334857	     62.19146792	     70.07953916	      5.74120168	     12.69573320
      1.49122807	     -2.88731671	     -1.63097637	     88.38146829	      0.19661109	      0.89817832	      0.61189090	     10.94013866	     -2.01590898	     -5.84204417	     10.27456872	      0.17932505	     25.46692251	     -2.00752897	      0.00000000	     13.81111052	      0.89984078	     -6.53910896	      9.34279217	      0.16306248	     31.42283041	     11.72886495	      0.00000000	      0.06875373	     -0.28997800	      0.41047032	      0.12768255	     -0.38567074	      0.43612471	      0.11295551	     -0.70505250	      0.43612471	      0.07857864	     -0.70505250	      0.35916153	      0.06384472	     -0.59132313	      0.33350713	      0.03928588	     -0.44917592	      0.30785274	      0.49110103	     -3.28028911	      2.28291275	      0.00000000	      0.00000000	      5.78073088	      0.84475559	     -4.31990084	     10.88984336	    -10.61098897	     46.11821124	     58.71101430	     51.01630938	      4.87429184	      6.71205797	     13.17864465	    -11.67583868	     42.44033049	     64.30873027	     71.40976889	      2.94457363	     14.70209781
      1.50877193	     -2.89343609	     -1.37944415	     88.68832014	      0.19720054	      0.89875279	      0.61045934	     10.39533746	     -2.06581015	     -6.75605933	      9.98646688	      0.17429673	     25.88775695	     -0.83309545	      0.00000000	     13.33419186	      1.00485063	     -5.35238988	      9.07080568	      0.15831542	     31.20073413	     10.55141178	      0.00000000	      0.03708345	     -0.29587080	      0.37651726	      0.06886767	     -0.39350816	      0.40004959	      0.06092440	     -0.71938026	      0.40004959	      0.04238267	     -0.71938026	      0.32945260	      0.03443569	     -0.60333973	      0.30592028	      0.02118948	     -0.45830387	      0.28238795	      0.26488337	     -3.34694964	      2.09407606	      0.00000000	      0.00000000	      5.16985740	      1.00956622	     -4.56226442	     10.77739176	    -10.80404631	     43.95326820	     60.71170620	     46.85206572	      4.23207212	      5.24400947	     13.19713353	    -11.57166500	     39.67318740	     66.22543842	     71.99420880	     -0.17332893	     14.23937994
      1.52631579	     -2.85573513	     -1.32097580	     89.04955044	      0.19776162	      0.89921785	      0.60885172	     10.01465427	     -1.97992729	     -6.71115573	      9.55235201	      0.16671999	     26.13587329	     -0.76572693	      0.00000000	     13.00714785	      1.00191385	     -4.87922345	      8.70362275	      0.15190687	     31.01522272	     10.43482213	      0.00000000	      0.03902612	     -0.30161594	      0.39863327	      0.07247540	     -0.40114921	      0.42354784	      0.06411601	     -0.73334901	      0.42354784	      0.04460295	     -0.73334901	      0.34880411	      0.03623965	     -0.61505523	      0.32388953	      0.02229952	     -0.46720310	      0.29897495	      0.27875964	     -3.41193988	      2.21707863	      0.00000000	      0.00000000	      4.36622311	      1.56772803	     -5.68440875	      9.84457114	    -10.95386689	     39.49920380	     63.20678544	     47.14580136	      4.66174731	      5.79029427	     13.45956807	    -11.39853065	     37.49093349	     68.40326957	     72.34630879	     -3.31990751	     13.84388198
      1.54385965	     -2.81495713	     -1.23408117	     89.27387433	      0.19851078	      0.89970683	      0.60802454	      9.78663151	     -1.87416948	     -6.61119793	      9.35212131	      0.16322531	     26.42626115	     -0.80918122	      0.00000000	     12.78711962	      0.99160944	     -4.10539827	      8.54529922	      0.14914361	     30.64337603	      9.52857753	      0.00000000	      0.01956671	     -0.30901280	      0.49746624	      0.03633733	     -0.41098702	      0.52855788	      0.03214614	     -0.75133371	      0.52855788	      0.02236279	     -0.75133371	      0.43528296	      0.01816964	     -0.63013889	      0.40419132	      0.01118042	     -0.47866082	      0.37309968	      0.13976303	     -3.49561455	      2.76675799	      0.00000000	      0.00000000	      3.80120514	      2.31032268	     -7.18883698	      8.28701602	    -10.97744316	     32.95197986	     66.41113934	     51.30743539	      5.98936071	      8.50186100	     14.34743159	    -11.42261218	     36.29593033	     70.78741282	     72.11579521	     -6.70576128	     13.40102030
      1.56140351	     -2.67838023	     -1.24228835	     89.54119712	      0.19866227	      0.90003732	      0.60732999	      9.64218937	     -1.71477372	     -6.55626054	      9.13474866	      0.15943144	     26.65061282	     -0.83249769	      0.00000000	     12.69950316	      0.88636066	     -3.59969604	      8.46127516	      0.14767711	     30.29998033	      9.09825854	      0.00000000	      0.02584651	     -0.29982675	      0.57513446	      0.04799955	     -0.39876958	      0.61108037	      0.04246322	     -0.72899876	      0.61108037	      0.02953997	     -0.72899876	      0.50324266	      0.02400107	     -0.61140671	      0.46729675	      0.01476869	     -0.46443164	      0.43135085	      0.18461901	     -3.39170018	      3.19872535	      0.00000000	      0.00000000	      2.80982056	      3.05801251	     -8.72925638	      6.90721022	    -11.46341432	     27.08885753	     70.25926652	     54.55211363	      6.20965023	     11.95853849	     14.91068990	    -11.48827618	     34.52100485	     73.92326108	     72.39770721	     -8.87054374	     14.27744145
      1.57894737	     -2.56917193	     -1.22830980	     89.55946050	      0.19877412	      0.90033381	      0.60716204	      9.65606950	     -1.58621238	     -6.44837922	      9.16133059	      0.15989538	     26.80573572	     -0.84048393	      0.00000000	     12.66038313	      0.79990864	     -3.11289751	      8.53858506	      0.14902642	     29.91073899	      8.23264763	      0.00000000	      0.02504690	     -0.28889813	      0.73246512	      0.04651460	     -0.38423452	      0.77824419	      0.04114956	     -0.70242692	      0.77824419	      0.02862611	     -0.70242692	      0.64090698	      0.02325855	     -0.58912107	      0.59512791	      0.01431180	     -0.44750321	      0.54934884	      0.17890752	     -3.26807345	      4.07375128	      0.00000000	      0.00000000	      1.74372260	      3.82360729	    -10.32161606	      5.32443607	    -11.66691819	     20.28651496	     74.36280601	     60.50021872	      6.52925968	     15.34171641	     15.75500626	    -11.66317105	     33.06391576	     77.49177469	     73.73103919	    -10.25047758	     15.94428878
